<svg id="visual" viewBox="0 0 960 540" width="960" height="540" xmlns="http://www.w3.org/2000/svg" xmlns:xlink="http://www.w3.org/1999/xlink" version="1.1"><rect x="0" y="0" width="960" height="540" fill="#92BFB1"></rect><g transform="translate(980.0894997995495 530.2626135033636)"><path d="M221.2 -337C258.7 -277.3 241.7 -175.1 248.2 -94.9C254.7 -14.6 284.8 43.9 293.6 119.7C302.4 195.6 290.1 288.9 237.6 349.2C185.2 409.5 92.6 436.8 7.1 427C-78.4 417.2 -156.7 370.4 -204.3 308.5C-251.8 246.6 -268.6 169.7 -290.9 95.8C-313.2 21.8 -341.1 -49 -335.7 -122.5C-330.3 -195.9 -291.5 -271.9 -230 -323.7C-168.5 -375.6 -84.2 -403.3 3.8 -408.6C91.9 -413.8 183.8 -396.6 221.2 -337" fill="#45d0a4"></path></g></svg>