<svg id="visual" viewBox="0 0 900 600" width="900" height="600" xmlns="http://www.w3.org/2000/svg" xmlns:xlink="http://www.w3.org/1999/xlink" version="1.1"><rect x="0" y="0" width="900" height="600" fill="#92BFB1"></rect><path d="M0 502L90 502L90 399L180 399L180 435L270 435L270 490L360 490L360 455L450 455L450 417L540 417L540 494L630 494L630 443L720 443L720 498L810 498L810 416L900 416L900 418L900 601L900 601L810 601L810 601L720 601L720 601L630 601L630 601L540 601L540 601L450 601L450 601L360 601L360 601L270 601L270 601L180 601L180 601L90 601L90 601L0 601Z" fill="#1a6f54" stroke-linecap="square" stroke-linejoin="miter"></path></svg>